<svg id="chip" xmlns="http://www.w3.org/2000/svg" width="73.119" height="73.119" viewBox="0 0 73.119 73.119">
  <path id="Path_3357" data-name="Path 3357" d="M354.711,185.284h-6.569a2.142,2.142,0,0,1,0-4.284h6.569a2.142,2.142,0,0,1,0,4.284Z" transform="translate(-296.587 -155.151)" fill="#414141"/>
  <path id="Path_3358" data-name="Path 3358" d="M367.564,305.284H348.142a2.142,2.142,0,0,1,0-4.284h19.422a2.142,2.142,0,0,1,0,4.284Z" transform="translate(-296.587 -258.014)" fill="#414141"/>
  <path id="Path_3359" data-name="Path 3359" d="M363.28,193.853H348.142a2.142,2.142,0,0,1,0-4.284h13v-6.426A2.142,2.142,0,0,1,363.28,181h4.284a2.142,2.142,0,0,1,0,4.284h-2.142v6.426A2.142,2.142,0,0,1,363.28,193.853Z" transform="translate(-296.587 -155.151)" fill="#414141"/>
  <g id="Group_273" data-name="Group 273">
    <path id="Path_3360" data-name="Path 3360" d="M98.711,305.284H92.142a2.142,2.142,0,1,1,0-4.284h6.569a2.142,2.142,0,1,1,0,4.284Z" transform="translate(-77.147 -258.014)" fill="#414141"/>
    <path id="Path_3361" data-name="Path 3361" d="M21.564,185.284H2.142a2.142,2.142,0,1,1,0-4.284H21.564a2.142,2.142,0,1,1,0,4.284Z" transform="translate(0 -155.151)" fill="#414141"/>
    <path id="Path_3362" data-name="Path 3362" d="M6.426,253.853H2.142a2.142,2.142,0,0,1,0-4.284H4.284v-6.426A2.142,2.142,0,0,1,6.426,241H21.564a2.142,2.142,0,0,1,0,4.284h-13v6.426A2.142,2.142,0,0,1,6.426,253.853Z" transform="translate(0 -206.583)" fill="#414141"/>
    <path id="Path_3363" data-name="Path 3363" d="M191.711,23.707a2.142,2.142,0,0,1-2.142-2.142v-13h-6.426A2.142,2.142,0,0,1,181,6.426V2.142a2.142,2.142,0,1,1,4.284,0V4.284h6.426a2.142,2.142,0,0,1,2.142,2.142V21.564A2.142,2.142,0,0,1,191.711,23.707Z" transform="translate(-155.151)" fill="#414141"/>
  </g>
  <path id="Path_3364" data-name="Path 3364" d="M256,30V49.422a2.142,2.142,0,0,0,2.142-2.142V32.142A2.142,2.142,0,0,0,256,30Z" transform="translate(-219.44 -25.716)" fill="#414141"/>
  <path id="Path_3365" data-name="Path 3365" d="M183.142,100.854A2.142,2.142,0,0,1,181,98.711V92.142a2.142,2.142,0,1,1,4.284,0v6.569A2.142,2.142,0,0,1,183.142,100.854Z" transform="translate(-155.151 -77.147)" fill="#414141"/>
  <path id="Path_3366" data-name="Path 3366" d="M303.142,23.707A2.142,2.142,0,0,1,301,21.564V2.142a2.142,2.142,0,0,1,4.284,0V21.564A2.142,2.142,0,0,1,303.142,23.707Z" transform="translate(-258.014)" fill="#414141"/>
  <path id="Path_3367" data-name="Path 3367" d="M303.142,356.854A2.142,2.142,0,0,1,301,354.711v-6.569a2.142,2.142,0,0,1,4.284,0v6.569A2.142,2.142,0,0,1,303.142,356.854Z" transform="translate(-258.014 -296.587)" fill="#414141"/>
  <path id="Path_3368" data-name="Path 3368" d="M183.142,369.707A2.142,2.142,0,0,1,181,367.564V348.142a2.142,2.142,0,0,1,4.284,0v19.422A2.142,2.142,0,0,1,183.142,369.707Z" transform="translate(-155.151 -296.587)" fill="#414141"/>
  <path id="Path_3369" data-name="Path 3369" d="M251.711,369.707a2.142,2.142,0,0,1-2.142-2.142v-2.142h-6.426A2.142,2.142,0,0,1,241,363.28V348.142a2.142,2.142,0,0,1,4.284,0v13h6.426a2.142,2.142,0,0,1,2.142,2.142v4.284A2.142,2.142,0,0,1,251.711,369.707Z" transform="translate(-206.583 -296.587)" fill="#414141"/>
  <path id="Path_3370" data-name="Path 3370" d="M264.569,361.138h-6.426v-13A2.142,2.142,0,0,0,256,346v19.422h6.427v2.142a2.142,2.142,0,0,0,4.284,0V363.28A2.142,2.142,0,0,0,264.569,361.138Z" transform="translate(-219.44 -296.587)" fill="#414141"/>
  <path id="Path_3371" data-name="Path 3371" d="M168.132,136h-29.99A2.142,2.142,0,0,0,136,138.142v29.99a2.142,2.142,0,0,0,2.142,2.142h29.99a2.142,2.142,0,0,0,2.142-2.142v-29.99A2.142,2.142,0,0,0,168.132,136Z" transform="translate(-116.578 -116.578)" fill="#e6e6e6"/>
  <path id="Path_3372" data-name="Path 3372" d="M271,136H256v34.275h15a2.142,2.142,0,0,0,2.142-2.142v-29.99A2.142,2.142,0,0,0,271,136Z" transform="translate(-219.44 -116.578)" fill="#cdcdce"/>
  <path id="Path_3373" data-name="Path 3373" d="M211,196H198.142A2.142,2.142,0,0,0,196,198.142V211a2.142,2.142,0,0,0,2.142,2.142H211A2.142,2.142,0,0,0,213.137,211V198.142A2.142,2.142,0,0,0,211,196Z" transform="translate(-168.009 -168.009)" fill="#8dd8c6"/>
  <path id="Path_3374" data-name="Path 3374" d="M262.427,196H256v17.137h6.427A2.142,2.142,0,0,0,264.569,211V198.142A2.142,2.142,0,0,0,262.427,196Z" transform="translate(-219.44 -168.009)" fill="#3cbf9f"/>
</svg>
