<svg xmlns="http://www.w3.org/2000/svg" xmlns:xlink="http://www.w3.org/1999/xlink" width="426.813" height="505.123" viewBox="0 0 426.813 505.123">
  <defs>
    <linearGradient id="linear-gradient" x1="0.002" y1="0.385" x2="1.001" y2="0.385" gradientUnits="objectBoundingBox">
      <stop offset="0" stop-color="#0e3280"/>
      <stop offset="1" stop-color="#0e32cb"/>
    </linearGradient>
    <linearGradient id="linear-gradient-2" x1="0.502" y1="0.968" x2="0.502" y2="-0.01" gradientUnits="objectBoundingBox">
      <stop offset="0" stop-color="#a5aab8"/>
      <stop offset="0.173" stop-color="#b6bac5"/>
      <stop offset="0.417" stop-color="#c7cbd2"/>
      <stop offset="0.682" stop-color="#d1d5da"/>
      <stop offset="1" stop-color="#d5d9dd"/>
    </linearGradient>
    <linearGradient id="linear-gradient-3" x1="0.502" y1="0.96" x2="0.502" y2="-0.016" gradientUnits="objectBoundingBox">
      <stop offset="0" stop-color="#192149"/>
      <stop offset="0.276" stop-color="#263156"/>
      <stop offset="0.819" stop-color="#4a5d79"/>
      <stop offset="1" stop-color="#586e86"/>
    </linearGradient>
    <linearGradient id="linear-gradient-4" x1="0.502" y1="0.959" x2="0.502" y2="-0.017" gradientUnits="objectBoundingBox">
      <stop offset="0" stop-color="#586e86"/>
      <stop offset="0.181" stop-color="#4a5d79"/>
      <stop offset="0.724" stop-color="#263156"/>
      <stop offset="1" stop-color="#192149"/>
    </linearGradient>
    <linearGradient id="linear-gradient-5" x1="0.513" y1="0.962" x2="0.513" y2="-0.034" gradientUnits="objectBoundingBox">
      <stop offset="0.002" stop-color="#586e86" stop-opacity="0"/>
      <stop offset="0.146" stop-color="#4d617b" stop-opacity="0.165"/>
      <stop offset="0.712" stop-color="#273257" stop-opacity="0.769"/>
      <stop offset="1" stop-color="#192149"/>
    </linearGradient>
    <linearGradient id="linear-gradient-6" x1="0.511" y1="0.97" x2="0.511" y2="-0.026" xlink:href="#linear-gradient-5"/>
    <linearGradient id="linear-gradient-7" x1="0.51" y1="0.978" x2="0.51" y2="-0.018" xlink:href="#linear-gradient-5"/>
    <linearGradient id="linear-gradient-8" x1="0.502" y1="1.504" x2="0.502" y2="-1.587" gradientUnits="objectBoundingBox">
      <stop offset="0" stop-color="#d5d0d4"/>
      <stop offset="0.031" stop-color="#bec4c6"/>
      <stop offset="0.192" stop-color="#ced3d5"/>
      <stop offset="0.43" stop-color="#dfe3e5"/>
      <stop offset="0.689" stop-color="#e9ecee"/>
      <stop offset="1" stop-color="#edf0f2"/>
    </linearGradient>
    <linearGradient id="linear-gradient-9" x1="0.502" y1="1.565" x2="0.502" y2="-1.612" xlink:href="#linear-gradient-8"/>
    <linearGradient id="linear-gradient-10" x1="0.502" y1="1.661" x2="0.502" y2="-1.652" xlink:href="#linear-gradient-8"/>
    <linearGradient id="linear-gradient-11" x1="0.502" y1="1.699" x2="0.502" y2="-1.668" xlink:href="#linear-gradient-8"/>
    <linearGradient id="linear-gradient-12" x1="0.502" y1="1.733" x2="0.502" y2="-1.682" xlink:href="#linear-gradient-8"/>
    <linearGradient id="linear-gradient-13" x1="0" y1="0.5" x2="1" y2="0.5" xlink:href="#linear-gradient"/>
    <linearGradient id="linear-gradient-14" x1="0.5" y1="1" x2="0.5" gradientUnits="objectBoundingBox">
      <stop offset="0" stop-color="#d5d0d4"/>
      <stop offset="0.031" stop-color="#bec4c6"/>
      <stop offset="0.098" stop-color="#c7cdce"/>
      <stop offset="0.296" stop-color="#e0e2e3"/>
      <stop offset="0.504" stop-color="#f1f2f3"/>
      <stop offset="0.729" stop-color="#fbfcfc"/>
      <stop offset="1" stop-color="#fff"/>
    </linearGradient>
    <linearGradient id="linear-gradient-15" x1="1.69" x2="1.69" y2="0" xlink:href="#linear-gradient-14"/>
    <linearGradient id="linear-gradient-16" x1="1.716" y1="1" x2="1.716" gradientUnits="objectBoundingBox">
      <stop offset="0" stop-color="#d9d9e0"/>
      <stop offset="0.062" stop-color="#cecfd8"/>
      <stop offset="0.36" stop-color="#a2a5b7"/>
      <stop offset="0.626" stop-color="#81869f"/>
      <stop offset="0.849" stop-color="#6e7390"/>
      <stop offset="1" stop-color="#676d8b"/>
    </linearGradient>
    <linearGradient id="linear-gradient-17" x1="1.716" y1="1" x2="1.716" gradientUnits="objectBoundingBox">
      <stop offset="0" stop-color="#6d7476"/>
      <stop offset="0.226" stop-color="#858b8d"/>
      <stop offset="0.483" stop-color="#989ea1"/>
      <stop offset="0.742" stop-color="#a5aaad"/>
      <stop offset="1" stop-color="#a9aeb1"/>
    </linearGradient>
    <linearGradient id="linear-gradient-26" x1="0.5" y1="1" x2="0.5" y2="0" xlink:href="#linear-gradient-3"/>
    <linearGradient id="linear-gradient-27" x1="0.5" y1="1" x2="0.5" y2="0" xlink:href="#linear-gradient-4"/>
    <linearGradient id="linear-gradient-28" x1="0.5" y1="1" x2="0.5" y2="0" xlink:href="#linear-gradient-5"/>
    <linearGradient id="linear-gradient-30" x1="0.5" y1="2.247" x2="0.5" y2="-1.896" xlink:href="#linear-gradient-8"/>
    <linearGradient id="linear-gradient-39" x1="0.219" y1="1.253" x2="1.003" y2="-0.045" gradientUnits="objectBoundingBox">
      <stop offset="0" stop-color="#fff" stop-opacity="0"/>
      <stop offset="0.232" stop-color="#fff" stop-opacity="0.008"/>
      <stop offset="0.368" stop-color="#fff" stop-opacity="0.043"/>
      <stop offset="0.48" stop-color="#fff" stop-opacity="0.098"/>
      <stop offset="0.578" stop-color="#fff" stop-opacity="0.176"/>
      <stop offset="0.668" stop-color="#fff" stop-opacity="0.278"/>
      <stop offset="0.751" stop-color="#fff" stop-opacity="0.404"/>
      <stop offset="0.83" stop-color="#fff" stop-opacity="0.553"/>
      <stop offset="0.904" stop-color="#fff" stop-opacity="0.729"/>
      <stop offset="0.973" stop-color="#fff" stop-opacity="0.918"/>
      <stop offset="1" stop-color="#fff"/>
    </linearGradient>
    <linearGradient id="linear-gradient-40" x1="-0.268" y1="0.932" x2="1.256" y2="0.065" xlink:href="#linear-gradient-39"/>
    <linearGradient id="linear-gradient-68" x1="0.5" y1="1" x2="0.5" y2="0" xlink:href="#linear-gradient-2"/>
    <linearGradient id="linear-gradient-72" x1="0.5" y1="1" x2="0.5" gradientUnits="objectBoundingBox">
      <stop offset="0" stop-color="#d9d9e0"/>
      <stop offset="0.209" stop-color="#b2b4c3"/>
      <stop offset="0.428" stop-color="#9195aa"/>
      <stop offset="0.638" stop-color="#7a7f99"/>
      <stop offset="0.834" stop-color="#6b718e"/>
      <stop offset="1" stop-color="#676d8b"/>
    </linearGradient>
    <linearGradient id="linear-gradient-73" x1="0.5" y1="1" x2="0.5" y2="0" xlink:href="#linear-gradient-17"/>
    <linearGradient id="linear-gradient-98" x1="0.5" y1="1" x2="0.5" gradientUnits="objectBoundingBox">
      <stop offset="0" stop-color="#2c333c"/>
      <stop offset="0.278" stop-color="#282f37"/>
      <stop offset="0.555" stop-color="#1e232b"/>
      <stop offset="0.832" stop-color="#0d0f18"/>
      <stop offset="1" stop-color="#000008"/>
    </linearGradient>
    <linearGradient id="linear-gradient-100" x1="0.138" y1="0.901" x2="1.254" y2="-0.107" xlink:href="#linear-gradient-39"/>
    <linearGradient id="linear-gradient-101" x1="0.092" y1="1.095" x2="0.971" y2="-0.07" xlink:href="#linear-gradient-39"/>
    <linearGradient id="linear-gradient-102" x1="0.192" y1="1.145" x2="0.982" y2="-0.064" xlink:href="#linear-gradient-39"/>
    <linearGradient id="linear-gradient-103" x1="-0.269" y1="0.932" x2="1.257" y2="0.065" xlink:href="#linear-gradient-39"/>
    <linearGradient id="linear-gradient-104" x1="-0.052" y1="0.805" x2="1.297" y2="-0.107" xlink:href="#linear-gradient-39"/>
    <linearGradient id="linear-gradient-105" x1="0.044" y1="1.084" x2="0.954" y2="-0.083" xlink:href="#linear-gradient-39"/>
    <linearGradient id="linear-gradient-106" x1="-0.653" y1="0.863" x2="1.283" y2="0.128" xlink:href="#linear-gradient-39"/>
    <linearGradient id="linear-gradient-107" x1="-0.062" y1="1.003" x2="1.058" y2="-0.003" xlink:href="#linear-gradient-39"/>
    <linearGradient id="linear-gradient-108" x1="0.5" y1="0.726" x2="0.5" y2="0.058" gradientUnits="objectBoundingBox">
      <stop offset="0" stop-color="#006405"/>
      <stop offset="0.046" stop-color="#006d0a"/>
      <stop offset="0.236" stop-color="#00911c"/>
      <stop offset="0.427" stop-color="#00ad2b"/>
      <stop offset="0.618" stop-color="#00c135"/>
      <stop offset="0.809" stop-color="#00ce3b"/>
      <stop offset="1" stop-color="#00d23e"/>
    </linearGradient>
    <linearGradient id="linear-gradient-109" x1="0.5" y1="1" x2="0.5" gradientUnits="objectBoundingBox">
      <stop offset="0" stop-color="#004413"/>
      <stop offset="1" stop-color="#00cc7e"/>
    </linearGradient>
    <linearGradient id="linear-gradient-114" x1="0.5" y1="1" x2="0.5" gradientUnits="objectBoundingBox">
      <stop offset="0" stop-color="#454749"/>
      <stop offset="1" stop-color="#929096"/>
    </linearGradient>
    <linearGradient id="linear-gradient-115" x1="0.5" y1="1" x2="0.5" gradientUnits="objectBoundingBox">
      <stop offset="0" stop-color="#a9aeb5"/>
      <stop offset="1" stop-color="#cfd2d0"/>
    </linearGradient>
  </defs>
  <g id="section4_bg" transform="translate(-850.756 -2213)">
    <path id="Path_3375" data-name="Path 3375" d="M14014.713,2588.762c97.362,2.345,35.739,142.347,108.686,255.084s-118.768,214.74-219.229,222.75-147.58-74.6-119.944-194.061S13917.351,2586.417,14014.713,2588.762Z" transform="translate(-12862 -349.009)" fill="#3cbf9f"/>
    <g id="Group_69" data-name="Group 69" transform="translate(572.491 2292.139)">
      <g id="Group_58" data-name="Group 58" transform="translate(306.381 39.288)">
        <g id="Group_42" data-name="Group 42" transform="translate(37.527)">
          <path id="Path_139" data-name="Path 139" d="M426.268,55.039,308.86,91.473V76.838l117.408-37.55Z" transform="translate(-308.86 -39.288)" fill="url(#linear-gradient)"/>
          <g id="Group_41" data-name="Group 41" transform="translate(0 10.586)">
            <path id="Path_140" data-name="Path 140" d="M426.268,316.072,308.86,333.6V81.213L426.268,44.222Z" transform="translate(-308.86 -44.222)" fill="url(#linear-gradient-2)"/>
            <path id="Path_141" data-name="Path 141" d="M409.7,246.245,313.452,263.73V78.235L409.7,48.381Z" transform="translate(-303.601 -39.457)" fill="url(#linear-gradient-3)"/>
            <path id="Path_142" data-name="Path 142" d="M407.789,243.89l-93.8,17.025V78.308l93.8-29Z" transform="translate(-302.99 -38.393)" fill="url(#linear-gradient-4)"/>
            <path id="Path_143" data-name="Path 143" d="M340.1,247.458l-15.675,3.594V62.2L340.1,57.346Z" transform="translate(-291.027 -29.187)" opacity="0.4" fill="url(#linear-gradient-5)" style="mix-blend-mode: multiply;isolation: isolate"/>
            <path id="Path_144" data-name="Path 144" d="M353.133,245.695l-16.04,3.677V58.338l16.04-4.964Z" transform="translate(-276.52 -33.736)" opacity="0.4" fill="url(#linear-gradient-6)" style="mix-blend-mode: multiply;isolation: isolate"/>
            <path id="Path_145" data-name="Path 145" d="M366.472,243.89l-16.418,3.764V54.39l16.418-5.081Z" transform="translate(-261.673 -38.393)" opacity="0.4" fill="url(#linear-gradient-7)" style="mix-blend-mode: multiply;isolation: isolate"/>
            <path id="Path_146" data-name="Path 146" d="M407.789,130.832l-93.8,18.369v-1.778l93.8-18.485Z" transform="translate(-302.99 52.821)" fill="url(#linear-gradient-8)"/>
            <path id="Path_147" data-name="Path 147" d="M407.789,117.157l-93.8,20.174v-1.778l93.8-20.291Z" transform="translate(-302.99 37.157)" fill="url(#linear-gradient-9)"/>
            <path id="Path_148" data-name="Path 148" d="M407.789,89.808l-93.8,23.785v-1.778l93.8-23.9Z" transform="translate(-302.99 5.827)" fill="url(#linear-gradient-10)"/>
            <path id="Path_149" data-name="Path 149" d="M407.789,76.133l-93.8,25.591V99.945l93.8-25.707Z" transform="translate(-302.99 -9.837)" fill="url(#linear-gradient-11)"/>
            <path id="Path_150" data-name="Path 150" d="M407.789,62.458l-93.8,27.4V88.076l93.8-27.513Z" transform="translate(-302.99 -25.502)" fill="url(#linear-gradient-12)"/>
          </g>
        </g>
        <g id="Group_55" data-name="Group 55">
          <g id="Group_50" data-name="Group 50" transform="translate(154.935)">
            <path id="Path_151" data-name="Path 151" d="M460.033,98.707l-96.45-38.064V39.288L460.033,79.6Z" transform="translate(-363.583 -39.288)" fill="url(#linear-gradient-13)"/>
            <path id="Path_152" data-name="Path 152" d="M460.033,416.513h-96.45V44.264l96.45,39.188Z" transform="translate(-363.583 -33.587)" fill="url(#linear-gradient-14)"/>
            <g id="Group_43" data-name="Group 43" transform="translate(10.812 359.35)">
              <path id="Path_153" data-name="Path 153" d="M368.622,230.486h76.916V208.633l-76.916-1.856Z" transform="translate(-368.622 -206.776)" fill="url(#linear-gradient-15)"/>
              <path id="Path_154" data-name="Path 154" d="M369.025,230.048h75.242V208.913l-75.242-1.755Z" transform="translate(-368.16 -206.339)" fill="url(#linear-gradient-16)"/>
              <path id="Path_155" data-name="Path 155" d="M369.025,208.661l75.242,1.551v-.458l-75.242-1.589Z" transform="translate(-368.16 -205.186)" fill="url(#linear-gradient-17)"/>
              <path id="Path_156" data-name="Path 156" d="M369.025,209.654l75.242,1.388v-.458l-75.242-1.426Z" transform="translate(-368.16 -204.048)" fill="url(#linear-gradient-17)"/>
              <path id="Path_157" data-name="Path 157" d="M369.025,210.647l75.242,1.224v-.458l-75.242-1.262Z" transform="translate(-368.16 -202.911)" fill="url(#linear-gradient-17)"/>
              <path id="Path_158" data-name="Path 158" d="M369.025,211.64l75.242,1.061v-.458l-75.242-1.1Z" transform="translate(-368.16 -201.773)" fill="url(#linear-gradient-17)"/>
              <path id="Path_159" data-name="Path 159" d="M369.025,212.633l75.242.9v-.458l-75.242-.936Z" transform="translate(-368.16 -200.636)" fill="url(#linear-gradient-17)"/>
              <path id="Path_160" data-name="Path 160" d="M369.025,213.626l75.242.734V213.9l-75.242-.772Z" transform="translate(-368.16 -199.498)" fill="url(#linear-gradient-17)"/>
              <path id="Path_161" data-name="Path 161" d="M369.025,214.619l75.242.571v-.458l-75.242-.609Z" transform="translate(-368.16 -198.361)" fill="url(#linear-gradient-17)"/>
              <path id="Path_162" data-name="Path 162" d="M369.025,215.612l75.242.408v-.458l-75.242-.446Z" transform="translate(-368.16 -197.223)" fill="url(#linear-gradient-17)"/>
              <path id="Path_163" data-name="Path 163" d="M369.025,216.606l75.242.244v-.458l-75.242-.283Z" transform="translate(-368.16 -196.086)" fill="url(#linear-gradient-17)"/>
            </g>
            <g id="Group_44" data-name="Group 44" transform="translate(9.618 20.957)">
              <path id="Path_164" data-name="Path 164" d="M409.353,233.886l-41.287-8.452V49.055L409.353,65.54Z" transform="translate(-368.066 -49.055)" fill="url(#linear-gradient-26)"/>
              <path id="Path_165" data-name="Path 165" d="M407.624,231.3l-39-8.045V49.937l39,15.511Z" transform="translate(-367.428 -48.045)" fill="url(#linear-gradient-27)"/>
              <path id="Path_166" data-name="Path 166" d="M383.547,226.332l-14.925-3.079V49.937l14.925,5.936Z" transform="translate(-367.428 -48.045)" opacity="0.4" fill="url(#linear-gradient-28)" style="mix-blend-mode: multiply;isolation: isolate"/>
              <path id="Path_167" data-name="Path 167" d="M394.585,226.008l-14.1-2.91V54.653l14.1,5.609Z" transform="translate(-353.844 -42.642)" opacity="0.4" fill="url(#linear-gradient-28)" style="mix-blend-mode: multiply;isolation: isolate"/>
              <path id="Path_168" data-name="Path 168" d="M407.624,98.27l-39-12.261V84.321l39,12.333Z" transform="translate(-367.428 -8.657)" fill="url(#linear-gradient-30)"/>
              <path id="Path_169" data-name="Path 169" d="M407.624,87.216l-39-13.386V72.141l39,13.459Z" transform="translate(-367.428 -22.61)" fill="url(#linear-gradient-30)"/>
              <path id="Path_170" data-name="Path 170" d="M407.624,98.27l-39-12.261V84.321l39,12.333Z" transform="translate(-367.428 -8.657)" fill="url(#linear-gradient-30)"/>
              <path id="Path_171" data-name="Path 171" d="M407.624,109.325l-39-11.135V96.5l39,11.208Z" transform="translate(-367.428 5.296)" fill="url(#linear-gradient-30)"/>
              <path id="Path_172" data-name="Path 172" d="M407.624,120.379l-39-10.009v-1.688l39,10.082Z" transform="translate(-367.428 19.248)" fill="url(#linear-gradient-30)"/>
              <path id="Path_173" data-name="Path 173" d="M407.624,131.434l-39-8.883v-1.688l39,8.956Z" transform="translate(-367.428 33.201)" fill="url(#linear-gradient-30)"/>
              <path id="Path_174" data-name="Path 174" d="M407.624,76.161l-39-14.512V59.961l39,14.585Z" transform="translate(-367.428 -36.563)" fill="url(#linear-gradient-30)"/>
            </g>
            <g id="Group_46" data-name="Group 46" transform="translate(9.618 210.657)">
              <path id="Path_175" data-name="Path 175" d="M409.353,266.516l-41.287-2.062V137.472l41.287,7.846Z" transform="translate(-368.066 -137.472)" fill="url(#linear-gradient-26)"/>
              <path id="Path_176" data-name="Path 176" d="M407.624,264.23l-39-2.009V138.238l39,7.35Z" transform="translate(-367.428 -136.596)" fill="url(#linear-gradient-27)"/>
              <g id="Group_45" data-name="Group 45" transform="translate(1.194 19.556)">
                <path id="Path_177" data-name="Path 177" d="M374.2,206.51l16.333.841,10.7-7.611V187.41Z" transform="translate(-362.234 -99.825)" fill="url(#linear-gradient-39)"/>
                <path id="Path_178" data-name="Path 178" d="M368.622,172.864v57.453l39-27.1V146.587Z" transform="translate(-368.622 -146.587)" fill="url(#linear-gradient-40)"/>
              </g>
              <path id="Path_179" data-name="Path 179" d="M383.547,262.99l-14.925-.769V138.238l14.925,2.813Z" transform="translate(-367.428 -136.596)" opacity="0.4" fill="url(#linear-gradient-28)" style="mix-blend-mode: multiply;isolation: isolate"/>
              <path id="Path_180" data-name="Path 180" d="M394.585,261.7l-14.1-.727v-120.5l14.1,2.658Z" transform="translate(-353.844 -134.036)" opacity="0.4" fill="url(#linear-gradient-28)" style="mix-blend-mode: multiply;isolation: isolate"/>
              <path id="Path_181" data-name="Path 181" d="M407.624,178.41l-39-4.1v-1.688l39,4.172Z" transform="translate(-367.428 -97.208)" fill="url(#linear-gradient-30)"/>
              <path id="Path_182" data-name="Path 182" d="M407.624,167.355l-39-5.225v-1.688l39,5.3Z" transform="translate(-367.428 -111.16)" fill="url(#linear-gradient-30)"/>
              <path id="Path_183" data-name="Path 183" d="M407.624,178.41l-39-4.1v-1.688l39,4.172Z" transform="translate(-367.428 -97.208)" fill="url(#linear-gradient-30)"/>
              <path id="Path_184" data-name="Path 184" d="M407.624,189.464l-39-2.974V184.8l39,3.046Z" transform="translate(-367.428 -83.255)" fill="url(#linear-gradient-30)"/>
              <path id="Path_185" data-name="Path 185" d="M407.624,156.3l-39-6.351v-1.688l39,6.424Z" transform="translate(-367.428 -125.113)" fill="url(#linear-gradient-30)"/>
            </g>
            <g id="Group_47" data-name="Group 47" transform="translate(69.267 232.495)">
              <path id="Path_186" data-name="Path 186" d="M416.67,175.766l-20.8-3.08V147.651l20.8,3.7Z" transform="translate(-395.867 -147.651)" fill="url(#linear-gradient-26)"/>
              <path id="Path_187" data-name="Path 187" d="M415.794,174.5l-19.652-2.927V148.048l19.652,3.473Z" transform="translate(-395.553 -147.196)" fill="url(#linear-gradient-27)"/>
              <path id="Path_188" data-name="Path 188" d="M403.567,172.677l-7.425-1.106V148.048l7.425,1.312Z" transform="translate(-395.553 -147.196)" opacity="0.4" fill="url(#linear-gradient-28)" style="mix-blend-mode: multiply;isolation: isolate"/>
              <path id="Path_189" data-name="Path 189" d="M409.279,173.339l-7.2-1.073V149.1l7.2,1.273Z" transform="translate(-388.757 -145.995)" opacity="0.4" fill="url(#linear-gradient-28)" style="mix-blend-mode: multiply;isolation: isolate"/>
              <path id="Path_190" data-name="Path 190" d="M415.794,157.421l-19.652-3.189v-.891l19.652,3.209Z" transform="translate(-395.553 -141.132)" fill="url(#linear-gradient-30)"/>
            </g>
            <g id="Group_48" data-name="Group 48" transform="translate(69.267 280.597)">
              <path id="Path_191" data-name="Path 191" d="M416.67,197l-20.8-1.9V170.071l20.8,2.513Z" transform="translate(-395.867 -170.071)" fill="url(#linear-gradient-26)"/>
              <path id="Path_192" data-name="Path 192" d="M415.794,195.786l-19.652-1.811V170.452l19.652,2.357Z" transform="translate(-395.553 -169.633)" fill="url(#linear-gradient-27)"/>
              <path id="Path_193" data-name="Path 193" d="M403.567,194.659l-7.425-.684V170.452l7.425.891Z" transform="translate(-395.553 -169.633)" opacity="0.4" fill="url(#linear-gradient-28)" style="mix-blend-mode: multiply;isolation: isolate"/>
              <path id="Path_194" data-name="Path 194" d="M409.279,195l-7.2-.664V171.164l7.2.864Z" transform="translate(-388.757 -168.818)" opacity="0.4" fill="url(#linear-gradient-28)" style="mix-blend-mode: multiply;isolation: isolate"/>
              <path id="Path_195" data-name="Path 195" d="M415.794,178.709l-19.652-2.073v-.891l19.652,2.093Z" transform="translate(-395.553 -163.57)" fill="url(#linear-gradient-30)"/>
            </g>
            <g id="Group_49" data-name="Group 49" transform="translate(75.752 47.362)">
              <path id="Path_196" data-name="Path 196" d="M419.588,229.111l-20.7-4.237V61.363l20.7,8.264Z" transform="translate(-398.89 -61.363)" fill="url(#linear-gradient-26)"/>
              <path id="Path_197" data-name="Path 197" d="M418.061,226.709l-18.693-3.856V62.165L418.061,69.6Z" transform="translate(-398.342 -60.443)" fill="url(#linear-gradient-27)"/>
              <path id="Path_198" data-name="Path 198" d="M412.213,225.5l-12.845-2.65V62.165l12.845,5.108Z" transform="translate(-398.342 -60.443)" opacity="0.4" fill="url(#linear-gradient-28)" style="mix-blend-mode: multiply;isolation: isolate"/>
              <path id="Path_199" data-name="Path 199" d="M418.061,101.485l-18.693-5.876V94.044l18.693,5.911Z" transform="translate(-398.342 -23.925)" fill="url(#linear-gradient-30)"/>
              <path id="Path_200" data-name="Path 200" d="M418.061,90.732l-18.693-6.416V82.751L418.061,89.2Z" transform="translate(-398.342 -36.861)" fill="url(#linear-gradient-30)"/>
              <path id="Path_201" data-name="Path 201" d="M418.061,101.485l-18.693-5.876V94.044l18.693,5.911Z" transform="translate(-398.342 -23.925)" fill="url(#linear-gradient-30)"/>
              <path id="Path_202" data-name="Path 202" d="M418.061,112.239,399.369,106.9v-1.565l18.693,5.372Z" transform="translate(-398.342 -10.989)" fill="url(#linear-gradient-30)"/>
              <path id="Path_203" data-name="Path 203" d="M418.061,122.992l-18.693-4.8V116.63l18.693,4.832Z" transform="translate(-398.342 1.947)" fill="url(#linear-gradient-30)"/>
              <path id="Path_204" data-name="Path 204" d="M418.061,133.745l-18.693-4.258v-1.565l18.693,4.293Z" transform="translate(-398.342 14.883)" fill="url(#linear-gradient-30)"/>
              <path id="Path_205" data-name="Path 205" d="M418.061,79.979l-18.693-6.955V71.459l18.693,6.99Z" transform="translate(-398.342 -49.797)" fill="url(#linear-gradient-30)"/>
            </g>
          </g>
          <g id="Group_54" data-name="Group 54" transform="translate(0 136.862)">
            <g id="Group_53" data-name="Group 53">
              <g id="Group_52" data-name="Group 52">
                <path id="Path_206" data-name="Path 206" d="M446.3,349.274H291.37V135.95L446.3,103.077Z" transform="translate(-291.37 -103.077)" fill="url(#linear-gradient-68)"/>
                <path id="Path_207" data-name="Path 207" d="M349.647,230.865h-13.6V206.743l13.6-.3Z" transform="translate(-240.188 15.332)" fill="url(#linear-gradient-14)"/>
                <path id="Path_208" data-name="Path 208" d="M359.226,231.1H345.14V206.55l14.087-.308Z" transform="translate(-229.775 15.098)" fill="url(#linear-gradient-14)"/>
                <g id="Group_51" data-name="Group 51" transform="translate(7.442 222.317)">
                  <path id="Path_209" data-name="Path 209" d="M372.251,230.577H294.838V208.392l77.413-1.7Z" transform="translate(-294.838 -206.697)" fill="url(#linear-gradient-14)"/>
                  <path id="Path_210" data-name="Path 210" d="M370.949,230.138H295.221V208.683l75.728-1.6Z" transform="translate(-294.4 -206.257)" fill="url(#linear-gradient-72)"/>
                  <path id="Path_211" data-name="Path 211" d="M370.949,208.594l-75.728,1.417v-.465l75.728-1.451Z" transform="translate(-294.4 -205.096)" fill="url(#linear-gradient-73)"/>
                  <path id="Path_212" data-name="Path 212" d="M370.949,209.595l-75.728,1.268V210.4l75.728-1.3Z" transform="translate(-294.4 -203.95)" fill="url(#linear-gradient-73)"/>
                  <path id="Path_213" data-name="Path 213" d="M370.949,210.6l-75.728,1.118v-.465l75.728-1.153Z" transform="translate(-294.4 -202.804)" fill="url(#linear-gradient-73)"/>
                  <path id="Path_214" data-name="Path 214" d="M370.949,211.6l-75.728.969V212.1l75.728-1Z" transform="translate(-294.4 -201.658)" fill="url(#linear-gradient-73)"/>
                  <path id="Path_215" data-name="Path 215" d="M370.949,212.6l-75.728.82v-.465l75.728-.855Z" transform="translate(-294.4 -200.512)" fill="url(#linear-gradient-73)"/>
                  <path id="Path_216" data-name="Path 216" d="M370.949,213.6l-75.728.671V213.8l75.728-.706Z" transform="translate(-294.4 -199.367)" fill="url(#linear-gradient-73)"/>
                  <path id="Path_217" data-name="Path 217" d="M370.949,214.6l-75.728.522v-.465l75.728-.557Z" transform="translate(-294.4 -198.221)" fill="url(#linear-gradient-73)"/>
                  <path id="Path_218" data-name="Path 218" d="M370.949,215.6l-75.728.373V215.5l75.728-.407Z" transform="translate(-294.4 -197.075)" fill="url(#linear-gradient-73)"/>
                  <path id="Path_219" data-name="Path 219" d="M370.949,216.6l-75.728.223v-.465l75.728-.258Z" transform="translate(-294.4 -195.929)" fill="url(#linear-gradient-73)"/>
                </g>
                <path id="Path_220" data-name="Path 220" d="M446.3,205.674,291.37,211.316V199.077L446.3,191.549Z" transform="translate(-291.37 -1.732)" fill="url(#linear-gradient-13)"/>
                <path id="Path_221" data-name="Path 221" d="M446.3,202.339,291.37,207.194v-2.368l154.935-5.22Z" transform="translate(-291.37 7.497)" fill="url(#linear-gradient-13)"/>
                <path id="Path_222" data-name="Path 222" d="M431.079,284.1l-135.858,7.1V135.484l135.858-27.972Z" transform="translate(-286.958 -97.997)" fill="url(#linear-gradient-26)"/>
                <path id="Path_223" data-name="Path 223" d="M429.328,281.855,295.67,289.008V135.645l133.658-27.354Z" transform="translate(-286.444 -97.105)" fill="url(#linear-gradient-27)"/>
                <path id="Path_224" data-name="Path 224" d="M308.09,275.1l-12.42.664V122.4l12.42-2.542Z" transform="translate(-286.444 -83.857)" opacity="0.4" fill="url(#linear-gradient-28)" style="mix-blend-mode: multiply;isolation: isolate"/>
                <path id="Path_225" data-name="Path 225" d="M318.7,276.331l-12.958.693V120.395l12.958-2.652Z" transform="translate(-274.902 -86.278)" opacity="0.4" fill="url(#linear-gradient-28)" style="mix-blend-mode: multiply;isolation: isolate"/>
                <path id="Path_226" data-name="Path 226" d="M329.791,277.621l-13.532.724V118.306l13.532-2.769Z" transform="translate(-262.858 -88.806)" opacity="0.4" fill="url(#linear-gradient-28)" style="mix-blend-mode: multiply;isolation: isolate"/>
                <path id="Path_227" data-name="Path 227" d="M341.387,278.969l-14.145.757v-163.6l14.145-2.895Z" transform="translate(-250.278 -91.448)" opacity="0.4" fill="url(#linear-gradient-28)" style="mix-blend-mode: multiply;isolation: isolate"/>
                <path id="Path_228" data-name="Path 228" d="M353.524,280.379l-14.8.792V113.847l14.8-3.029Z" transform="translate(-237.125 -94.211)" opacity="0.4" fill="url(#linear-gradient-28)" style="mix-blend-mode: multiply;isolation: isolate"/>
                <path id="Path_229" data-name="Path 229" d="M366.243,281.855l-15.5.83V111.464l15.5-3.173Z" transform="translate(-223.359 -97.105)" opacity="0.4" fill="url(#linear-gradient-28)" style="mix-blend-mode: multiply;isolation: isolate"/>
                <path id="Path_230" data-name="Path 230" d="M429.328,181.009l-133.658,9.42v-1.493l133.658-9.617Z" transform="translate(-286.444 -15.742)" fill="url(#linear-gradient-30)"/>
                <path id="Path_231" data-name="Path 231" d="M429.328,168.811,295.67,181.277v-1.493l133.658-12.663Z" transform="translate(-286.444 -29.715)" fill="url(#linear-gradient-30)"/>
                <path id="Path_232" data-name="Path 232" d="M429.328,156.613,295.67,172.125v-1.493l133.658-15.709Z" transform="translate(-286.444 -43.688)" fill="url(#linear-gradient-30)"/>
                <path id="Path_233" data-name="Path 233" d="M429.328,144.415,295.67,162.974V161.48l133.658-18.755Z" transform="translate(-286.444 -57.661)" fill="url(#linear-gradient-30)"/>
                <path id="Path_234" data-name="Path 234" d="M429.328,132.218l-133.658,21.6v-1.494l133.658-21.8Z" transform="translate(-286.444 -71.633)" fill="url(#linear-gradient-30)"/>
                <path id="Path_235" data-name="Path 235" d="M429.328,120.02,295.67,144.67v-1.493L429.328,118.33Z" transform="translate(-286.444 -85.606)" fill="url(#linear-gradient-30)"/>
                <path id="Path_236" data-name="Path 236" d="M348.091,230.414H336.515v-23.33l11.575-.245Z" transform="translate(-239.655 15.783)" fill="url(#linear-gradient-98)"/>
                <path id="Path_237" data-name="Path 237" d="M357.614,230.639H345.622V206.9l11.992-.254Z" transform="translate(-229.223 15.557)" fill="url(#linear-gradient-98)"/>
              </g>
            </g>
            <path id="Path_238" data-name="Path 238" d="M347.491,286.219l81.836-58.8v-4.27l-88.539,63.43ZM295.67,196.45v58.315L429.327,163V108.306Zm0,92.54,15.836-.847,117.821-83.336V192.9L295.67,286.645Z" transform="translate(-286.443 -97.088)" fill="url(#linear-gradient-100)"/>
          </g>
        </g>
        <g id="Group_56" data-name="Group 56" transform="translate(165.747 73.652)">
          <path id="Path_239" data-name="Path 239" d="M368.622,142.05V149.3l5.753,1.186,33.249-23.644V114.5Z" transform="translate(-368.622 -26.789)" fill="url(#linear-gradient-101)"/>
          <path id="Path_240" data-name="Path 240" d="M393.435,133.541v-4.428l-12.426,8.924,4.8.991Z" transform="translate(-354.433 -10.043)" fill="url(#linear-gradient-102)"/>
          <path id="Path_241" data-name="Path 241" d="M368.622,99.893v57.532l39-27.1V73.616Z" transform="translate(-368.622 -73.616)" fill="url(#linear-gradient-103)"/>
        </g>
        <path id="Path_242" data-name="Path 242" d="M313.985,218.767l93.8-67.524v-4.327l-93.8,67.369ZM356.34,65.215,313.985,93.75v57.4l93.8-65.185V49.31ZM313.985,195.038l93.8-66.706V116.265l-93.8,66.271Z" transform="translate(-265.463 -27.807)" fill="url(#linear-gradient-104)"/>
        <g id="Group_57" data-name="Group 57" transform="translate(231.713 51.46)">
          <path id="Path_243" data-name="Path 243" d="M418.061,118.182V113.83l-18.693,13.425v4.383Z" transform="translate(-399.369 -5.359)" fill="url(#linear-gradient-105)"/>
          <path id="Path_244" data-name="Path 244" d="M399.369,123.432l18.693-12.99V68.331l-12.718-5.058L399.369,67.3Z" transform="translate(-399.369 -63.273)" fill="url(#linear-gradient-106)"/>
          <path id="Path_245" data-name="Path 245" d="M399.369,112.667v12.224L418.061,111.6V99.461Z" transform="translate(-399.369 -21.819)" fill="url(#linear-gradient-107)"/>
        </g>
      </g>
      <g id="Group_68" data-name="Group 68" transform="translate(278.265 411.454)">
        <g id="Group_60" data-name="Group 60" transform="translate(12.941)">
          <path id="Path_246" data-name="Path 246" d="M309.994,217.3a2.823,2.823,0,0,0-2.369,1.289,2.8,2.8,0,0,0-4.1-.682,5.976,5.976,0,0,0-11.5-1.337,4.227,4.227,0,1,0,1.086,6.1,5.972,5.972,0,0,0,9.739-1.073,2.813,2.813,0,0,0,4.769.064,2.825,2.825,0,1,0,2.369-4.364Z" transform="translate(-282.87 -212.75)" fill="url(#linear-gradient-108)"/>
          <g id="Group_59" data-name="Group 59" transform="translate(0 7.381)">
            <path id="Rectangle_17" data-name="Rectangle 17" d="M1.46,0H40.227a1.46,1.46,0,0,1,1.46,1.46V3.511a0,0,0,0,1,0,0H0a0,0,0,0,1,0,0V1.46A1.46,1.46,0,0,1,1.46,0Z" fill="url(#linear-gradient-109)"/>
          </g>
        </g>
        <g id="Group_62" data-name="Group 62" transform="translate(167.1)">
          <path id="Path_247" data-name="Path 247" d="M381.845,217.3a2.819,2.819,0,0,0-2.367,1.289,2.8,2.8,0,0,0-4.1-.682,5.976,5.976,0,0,0-11.5-1.337,4.227,4.227,0,1,0,1.086,6.1,5.972,5.972,0,0,0,9.738-1.073,2.813,2.813,0,0,0,4.77.064,2.825,2.825,0,1,0,2.367-4.364Z" transform="translate(-354.723 -212.75)" fill="url(#linear-gradient-108)"/>
          <g id="Group_61" data-name="Group 61" transform="translate(0 7.381)">
            <path id="Rectangle_18" data-name="Rectangle 18" d="M1.46,0H40.227a1.46,1.46,0,0,1,1.46,1.46V3.511a0,0,0,0,1,0,0H0a0,0,0,0,1,0,0V1.46A1.46,1.46,0,0,1,1.46,0Z" fill="url(#linear-gradient-109)"/>
          </g>
        </g>
        <g id="Group_64" data-name="Group 64" transform="translate(262.719)">
          <path id="Path_248" data-name="Path 248" d="M426.412,217.3a2.819,2.819,0,0,0-2.367,1.289,2.822,2.822,0,0,0-2.366-1.289,2.792,2.792,0,0,0-1.731.607,5.976,5.976,0,0,0-11.5-1.337,4.228,4.228,0,1,0,1.084,6.1,5.974,5.974,0,0,0,9.741-1.073,2.813,2.813,0,0,0,4.769.064,2.825,2.825,0,1,0,2.367-4.364Z" transform="translate(-399.29 -212.75)" fill="url(#linear-gradient-108)"/>
          <g id="Group_63" data-name="Group 63" transform="translate(0 7.381)">
            <path id="Rectangle_19" data-name="Rectangle 19" d="M1.46,0H40.227a1.46,1.46,0,0,1,1.46,1.46V3.511a0,0,0,0,1,0,0H0a0,0,0,0,1,0,0V1.46A1.46,1.46,0,0,1,1.46,0Z" fill="url(#linear-gradient-109)"/>
          </g>
        </g>
        <g id="Group_67" data-name="Group 67" transform="translate(0 9.925)">
          <g id="Group_66" data-name="Group 66">
            <g id="Group_65" data-name="Group 65">
              <rect id="Rectangle_20" data-name="Rectangle 20" width="313.22" height="2.112" transform="translate(0 2.494)" fill="url(#linear-gradient-114)"/>
              <rect id="Rectangle_21" data-name="Rectangle 21" width="313.22" height="0.566" transform="translate(0 2.494)" fill="url(#linear-gradient-115)"/>
              <rect id="Rectangle_22" data-name="Rectangle 22" width="313.22" height="2.494" fill="#1e1f22"/>
            </g>
          </g>
        </g>
      </g>
    </g>
    <g id="Group_278" data-name="Group 278" transform="translate(34.606 -53.564)">
      <path id="location-pin" d="M45.547,0A42.75,42.75,0,0,0,3,42.854c0,33.579,38.548,68.25,40.188,69.706a3.554,3.554,0,0,0,4.718,0c1.64-1.461,40.188-36.132,40.188-69.711A42.75,42.75,0,0,0,45.547,0Zm0,66.184A23.637,23.637,0,1,1,69.184,42.547,23.664,23.664,0,0,1,45.547,66.184Z" transform="translate(927.213 2266.564)" fill="#414141"/>
      <circle id="Ellipse_25" data-name="Ellipse 25" cx="32.162" cy="32.162" r="32.162" transform="translate(940.388 2277.332)" fill="#fff"/>
      <g id="slack_2_" data-name="slack (2)" transform="translate(949.897 2286.764)">
        <path id="Path_3376" data-name="Path 3376" d="M138.683,271a4.824,4.824,0,0,0-4.819,4.819v12.042a4.819,4.819,0,0,0,9.638,0V275.819A4.824,4.824,0,0,0,138.683,271Z" transform="translate(-121.822 -246.621)" fill="#ff4340"/>
        <path id="Path_3377" data-name="Path 3377" d="M9.474,271H4.808a4.665,4.665,0,1,0,4.665,4.665Z" transform="translate(-0.13 -246.621)" fill="#ff4340"/>
        <path id="Path_3378" data-name="Path 3378" d="M0,138.683A4.824,4.824,0,0,0,4.819,143.5H16.861a4.819,4.819,0,1,0,0-9.638H4.819A4.824,4.824,0,0,0,0,138.683Z" transform="translate(0 -121.822)" fill="#36c6ff"/>
        <path id="Path_3379" data-name="Path 3379" d="M141.945,9.474h4.665V4.808a4.665,4.665,0,1,0-4.665,4.665Z" transform="translate(-124.93 -0.13)" fill="#36c6ff"/>
        <path id="Path_3380" data-name="Path 3380" d="M275.819,21.68a4.824,4.824,0,0,0,4.819-4.819V4.819a4.819,4.819,0,1,0-9.638,0V16.861a4.824,4.824,0,0,0,4.819,4.819Z" transform="translate(-246.621 0)" fill="#0dc46e"/>
        <path id="Path_3381" data-name="Path 3381" d="M408.137,146.611H412.8a4.665,4.665,0,1,0-4.665-4.665Z" transform="translate(-371.421 -124.93)" fill="#0dc46e"/>
        <g id="Group_277" data-name="Group 277" transform="translate(24.379 24.379)">
          <path id="Path_3382" data-name="Path 3382" d="M292.68,275.819A4.824,4.824,0,0,0,287.861,271H275.819a4.819,4.819,0,1,0,0,9.638h12.042A4.824,4.824,0,0,0,292.68,275.819Z" transform="translate(-271 -271)" fill="#fdcb02"/>
          <path id="Path_3383" data-name="Path 3383" d="M275.665,408.137H271V412.8a4.665,4.665,0,1,0,4.665-4.665Z" transform="translate(-271 -395.8)" fill="#fdcb02"/>
        </g>
      </g>
    </g>
  </g>
</svg>
