<svg xmlns="http://www.w3.org/2000/svg" width="458.006" height="440.71" viewBox="0 0 458.006 440.71">
  <path id="Section_2_bg" d="M491.976,432.6q-1.16,2.491-2.495,4.952c-11.6,21.359-31.617,38.195-54.939,45.029-22.407,6.568-45.962,3.918-68.929,3.434-23.037-.487-45.678,3.145-68.32,7-22.017,3.748-43.055,10.109-65.53,11.062-36.852,1.563-78.033-7.361-96.933-42.188-17.864-32.922-15.979-69.015-44.511-96.858-25.35-24.738-37.979-53.258-25.468-88.679,6.643-18.807,18.93-35.006,33.26-48.66,14.144-13.477,33.218-22.634,43.916-39.406,8.088-12.68,10.17-28.128,12.767-42.941,2.718-15.5,6.277-31.066,13.574-45.006,10.61-20.27,26.442-32.583,48.736-35.18,27.339-3.185,55.2-2.477,80.531,9.414,17.607,8.267,32.315,20.709,48.9,30.537,24.126,14.295,50.757,12.78,77.18,18.157,43.141,8.777,80.712,39.363,91.444,82.928,12.83,52.08-22.738,97.8-16.162,149.4C502.345,381.839,503.317,408.245,491.976,432.6Z" transform="translate(-59.97 -63.537)" fill="#ecf5e2"/>
</svg>
