<svg xmlns="http://www.w3.org/2000/svg" width="75.572" height="75.424" viewBox="0 0 75.572 75.424">
  <g id="storytelling_1_" data-name="storytelling (1)" transform="translate(0 -0.502)">
    <path id="Path_3335" data-name="Path 3335" d="M65.921,346.006a2.214,2.214,0,0,1-1.98-1.224c-6.24-12.48-28.068-8.309-28.288-8.265a2.214,2.214,0,0,1-.867-4.342,52.129,52.129,0,0,1,13.32-.625c8.036.7,14.115,3.493,17.815,8.144,3.7-4.651,9.779-7.445,17.815-8.144a52.115,52.115,0,0,1,13.32.625,2.214,2.214,0,1,1-.868,4.342c-.218-.043-22.046-4.215-28.286,8.265A2.214,2.214,0,0,1,65.921,346.006Z" transform="translate(-28.135 -282.036)" fill="#3cbf9f"/>
    <path id="Path_3336" data-name="Path 3336" d="M257.984,344.782c6.24-12.48,28.068-8.309,28.286-8.265a2.214,2.214,0,1,0,.868-4.342,52.108,52.108,0,0,0-13.319-.625c-8.036.7-14.115,3.493-17.815,8.144v6.312A2.214,2.214,0,0,0,257.984,344.782Z" transform="translate(-218.218 -282.036)" fill="#3cbf9f"/>
    <path id="Path_3337" data-name="Path 3337" d="M82.013,386.342a2.216,2.216,0,0,0-1.111-1.42c-.84-.444-20.1-10.472-32.918-3.029-12.816-7.442-32.078,2.584-32.918,3.029a2.217,2.217,0,0,0-1.111,1.42l-1.991,7.96,2.352,1.669,24.571-6.381s9.446,14.27,17.838,0L84,396.62l.1-2.292Z" transform="translate(-10.198 -322.762)" fill="#e6e6e6"/>
    <path id="Path_3338" data-name="Path 3338" d="M292.024,394.3l-1.991-7.961a2.214,2.214,0,0,0-1.112-1.419c-.84-.445-20.1-10.472-32.917-3.029v15.761a11.884,11.884,0,0,0,10.311-6.5l24.715,6.725,1.092-3.553Z" transform="translate(-218.218 -322.764)" fill="#cdcdce"/>
    <path id="Path_3339" data-name="Path 3339" d="M73.359,446.938a2.219,2.219,0,0,1-.547-.069L48.1,440.587a11.672,11.672,0,0,1-20.622,0L2.76,446.869a2.214,2.214,0,1,1-1.091-4.292l26.56-6.751a2.213,2.213,0,0,1,2.657,1.48,7.236,7.236,0,0,0,13.8,0,2.214,2.214,0,0,1,2.657-1.48l26.56,6.751a2.214,2.214,0,0,1-.544,4.36Z" transform="translate(0 -371.012)" fill="#696969"/>
    <path id="Path_3340" data-name="Path 3340" d="M266.314,440.588l24.715,6.282a2.214,2.214,0,1,0,1.091-4.292l-26.56-6.751a2.214,2.214,0,0,0-2.657,1.48,7.2,7.2,0,0,1-6.9,5.055v4.428A11.609,11.609,0,0,0,266.314,440.588Z" transform="translate(-218.217 -371.013)" fill="#414141"/>
    <path id="Path_3341" data-name="Path 3341" d="M423.484,12.635h-1.919V10.716a2.214,2.214,0,1,0-4.428,0v1.919h-1.919a2.214,2.214,0,0,0,0,4.428h1.919v1.919a2.214,2.214,0,0,0,4.428,0V17.063h1.919a2.214,2.214,0,1,0,0-4.428Z" transform="translate(-352.045 -6.819)" fill="#31bebe"/>
    <path id="Path_3342" data-name="Path 3342" d="M323.215,234.831a2.214,2.214,0,0,1-.853-4.258l14.17-5.9a2.214,2.214,0,1,1,1.7,4.087l-14.17,5.9A2.207,2.207,0,0,1,323.215,234.831Z" transform="translate(-273.62 -190.934)" fill="#fabe2c"/>
    <path id="Path_3343" data-name="Path 3343" d="M275.217,109.725A2.216,2.216,0,0,1,273.061,107l5.9-24.8a2.214,2.214,0,0,1,4.307,1.026l-5.9,24.8A2.215,2.215,0,0,1,275.217,109.725Z" transform="translate(-232.706 -68.19)" fill="#fabe2c"/>
    <path id="Path_3344" data-name="Path 3344" d="M197.575,157.459a2.214,2.214,0,0,1-2.189-1.9l-2.362-16.531a2.214,2.214,0,1,1,4.384-.626l2.362,16.531a2.214,2.214,0,0,1-1.879,2.5A2.25,2.25,0,0,1,197.575,157.459Z" transform="translate(-164.514 -115.924)" fill="#fed843"/>
    <path id="Path_3345" data-name="Path 3345" d="M65.388,187.1a2.207,2.207,0,0,1-1.565-.649l-14.17-14.17a2.214,2.214,0,1,1,3.131-3.131l14.17,14.17a2.214,2.214,0,0,1-1.566,3.78Z" transform="translate(-41.771 -143.204)" fill="#fed843"/>
    <ellipse id="Ellipse_20" data-name="Ellipse 20" cx="2.328" cy="2.362" rx="2.328" ry="2.362" transform="translate(0.931 38.68)" fill="#3cbf9f"/>
    <ellipse id="Ellipse_22" data-name="Ellipse 22" cx="2.328" cy="2.362" rx="2.328" ry="2.362" transform="translate(55.87 20.987)" fill="#3cbf9f"/>
    <path id="Path_3347" data-name="Path 3347" d="M7.941,14.376a6.937,6.937,0,1,1,6.937-6.937,6.945,6.945,0,0,1-6.937,6.937Z" transform="translate(-0.856)" fill="#3cbf9f"/>
  </g>
</svg>
